<svg width="100" height="100" viewBox="0 0 100 100" fill="none" xmlns="http://www.w3.org/2000/svg">
<path d="M60.4167 99.425C59.9458 99.425 59.4875 99.2667 59.1125 98.9667C58.6208 98.5708 58.3333 97.975 58.3333 97.3417V81.8417C58.3333 78.0958 57.8542 75.4375 56.8208 73.4875C56.5167 72.9167 56.5 72.2375 56.7667 71.65C57.0333 71.0625 57.5625 70.6333 58.1917 70.4875C70.5417 67.6375 79.1667 58.6 79.1667 48.5083C79.1667 43.5083 77.1125 38.7375 73.2292 34.7083C72.6292 34.0875 72.475 33.1667 72.8375 32.3833C74.3875 29.0417 74.0583 24.4917 72.2208 21.7625C69.7917 22.7125 66.6375 24.7 64.5875 27.1333C64.0292 27.8042 63.1083 28.05 62.2792 27.7458C54.4667 24.8792 45.5375 24.8792 37.725 27.7458C36.9042 28.0458 35.9792 27.8042 35.4167 27.1375C33.3667 24.7042 30.2125 22.7167 27.7792 21.7667C25.9417 24.4958 25.6125 29.0458 27.1625 32.3875C27.525 33.1667 27.3708 34.0875 26.7708 34.7083C22.8875 38.7375 20.8333 43.5125 20.8333 48.5083C20.8333 58.1208 28.5958 66.7792 40.15 70.05C41.05 70.3083 41.6667 71.125 41.6667 72.0583V73.5125C41.6667 76.1208 40.6208 77.5917 39.7417 78.3708C37.8583 80.025 35.425 79.775 35.1583 79.7458C35.1458 79.7458 35.1292 79.7458 35.1167 79.7458C31.6833 79.7458 29.1 77.8333 26.6042 75.9833C25.35 75.0542 24.0792 74.1083 22.6 73.325C22.9208 73.7583 23.2375 74.2042 23.5583 74.65C26.6833 78.9958 30.2208 83.925 35.4208 83.925H39.5875C40.7375 83.925 41.6708 84.8583 41.6708 86.0083V97.3417C41.6708 97.975 41.3833 98.5708 40.8917 98.9667C40.3958 99.3583 39.7542 99.5042 39.1375 99.375C16.4583 94.3417 0 73.8292 0 50.5917C0 23.0208 22.4292 0.591675 50 0.591675C77.5708 0.591675 100 23.0208 100 50.5917C100 73.825 83.5417 94.3417 60.8667 99.375C60.7167 99.4083 60.5667 99.425 60.4167 99.425ZM61.4917 73.9208C62.175 76.075 62.5 78.6583 62.5 81.8417V94.6667C81.9625 89.1417 95.8333 71.0125 95.8333 50.5917C95.8333 25.3208 75.2708 4.75834 50 4.75834C24.7292 4.75834 4.16667 25.3208 4.16667 50.5917C4.16667 71.0125 18.0375 89.1417 37.5 94.6667V88.0917H35.4167C28.0833 88.0917 23.6958 81.9875 20.1708 77.0792C18.175 74.3 16.1083 71.425 14.5833 71.425C13.4333 71.425 12.5 70.4917 12.5 69.3417C12.5 68.1917 13.4333 67.2583 14.5833 67.2583C21.8333 67.2583 25.8542 70.2375 29.0833 72.6333C31.3167 74.2875 33.075 75.5917 35.4167 75.5917C35.65 75.6042 36.5125 75.6667 36.9958 75.2333C37.3917 74.875 37.4917 74.1625 37.5 73.6C24.975 69.4875 16.6667 59.5667 16.6667 48.5125C16.6667 42.8292 18.8 37.4292 22.85 32.8208C21.0625 27.6417 22.1667 21.3167 25.6083 17.8708C26.1292 17.3458 26.8875 17.1333 27.6125 17.3292C30.3958 18.0667 34.5292 20.2292 37.6167 23.375C45.5542 20.7875 54.4333 20.7875 62.3708 23.375C65.4583 20.2292 69.5917 18.0667 72.375 17.3292C73.0958 17.1333 73.8542 17.3417 74.3792 17.8708C77.825 21.3167 78.925 27.6417 77.1375 32.8167C81.2 37.4292 83.3333 42.8292 83.3333 48.5083C83.3333 59.875 74.4708 70.05 61.4917 73.9208Z" fill="#F9E9EC"/>
</svg>
