<svg width="100" height="100" viewBox="0 0 100 100" fill="none" xmlns="http://www.w3.org/2000/svg">
<path d="M65.625 93.75H34.375C26.9158 93.75 19.7621 90.7868 14.4876 85.5124C9.21316 80.2379 6.25 73.0842 6.25 65.625V34.375C6.25 26.9158 9.21316 19.7621 14.4876 14.4876C19.7621 9.21316 26.9158 6.25 34.375 6.25H65.625C73.0842 6.25 80.2379 9.21316 85.5124 14.4876C90.7868 19.7621 93.75 26.9158 93.75 34.375V65.625C93.75 73.0842 90.7868 80.2379 85.5124 85.5124C80.2379 90.7868 73.0842 93.75 65.625 93.75V93.75ZM34.375 12.5C28.5734 12.5 23.0094 14.8047 18.907 18.907C14.8047 23.0094 12.5 28.5734 12.5 34.375V65.625C12.5 71.4266 14.8047 76.9906 18.907 81.093C23.0094 85.1953 28.5734 87.5 34.375 87.5H65.625C71.4266 87.5 76.9906 85.1953 81.093 81.093C85.1953 76.9906 87.5 71.4266 87.5 65.625V34.375C87.5 28.5734 85.1953 23.0094 81.093 18.907C76.9906 14.8047 71.4266 12.5 65.625 12.5H34.375Z" fill="#F9E9EC"/>
<path d="M50 71.875C46.7596 71.9018 43.555 71.1967 40.625 69.8125C39.8906 69.4507 39.3275 68.8152 39.0568 68.0425C38.7861 67.2699 38.8294 66.4219 39.1774 65.6809C39.5254 64.9398 40.1503 64.365 40.9178 64.0799C41.6852 63.7948 42.5338 63.8222 43.2813 64.1563C46.6725 65.7234 50.5129 66.0237 54.1065 65.0027C57.7001 63.9816 60.8089 61.7068 62.8694 58.5906C64.9299 55.4745 65.8057 51.7231 65.3381 48.0167C64.8704 44.3103 63.0903 40.8941 60.3204 38.3873C57.5504 35.8806 53.974 34.4493 50.2394 34.3528C46.5049 34.2563 42.8593 35.5011 39.9637 37.8615C37.068 40.2219 35.1139 43.5416 34.4555 47.219C33.7972 50.8963 34.4781 54.6879 36.375 57.9063C36.6011 58.2619 36.7529 58.6597 36.8213 59.0756C36.8897 59.4914 36.8733 59.9169 36.773 60.3262C36.6728 60.7356 36.4907 61.1204 36.2379 61.4576C35.985 61.7948 35.6665 62.0774 35.3017 62.2883C34.9368 62.4992 34.533 62.6341 34.1146 62.6849C33.6962 62.7358 33.2718 62.7014 32.8671 62.584C32.4623 62.4666 32.0855 62.2685 31.7592 62.0016C31.433 61.7348 31.1641 61.4047 30.9688 61.0313C29.0534 57.6739 28.0715 53.865 28.125 50C28.125 45.6735 29.4079 41.4442 31.8116 37.8469C34.2153 34.2496 37.6317 31.4458 41.6288 29.7901C45.6259 28.1345 50.0243 27.7013 54.2676 28.5453C58.5109 29.3894 62.4087 31.4728 65.468 34.532C68.5272 37.5913 70.6106 41.4891 71.4547 45.7324C72.2987 49.9757 71.8655 54.3741 70.2099 58.3712C68.5542 62.3683 65.7504 65.7848 62.1531 68.1884C58.5558 70.5921 54.3265 71.875 50 71.875Z" fill="#F9E9EC"/>
<path d="M73.4375 31.25C76.0263 31.25 78.125 29.1513 78.125 26.5625C78.125 23.9737 76.0263 21.875 73.4375 21.875C70.8487 21.875 68.75 23.9737 68.75 26.5625C68.75 29.1513 70.8487 31.25 73.4375 31.25Z" fill="#F9E9EC"/>
</svg>
