<svg width="100" height="100" viewBox="0 0 100 100" fill="none" xmlns="http://www.w3.org/2000/svg">
<path d="M83.333 10H16.667C13.001 10 10 13.001 10 16.667V83.334C10 86.998 13.001 90 16.667 90H83.333C86.999 90 90 86.998 90 83.334V16.667C90 13.001 86.999 10 83.333 10ZM83.333 83.334H16.667V16.667H83.333V83.334Z" fill="#F9E9EC"/>
<path d="M36.667 43.333H30V70H36.667V43.333Z" fill="#F9E9EC"/>
<path d="M33.333 40C36.0944 40 38.333 37.7614 38.333 35C38.333 32.2386 36.0944 30 33.333 30C30.5716 30 28.333 32.2386 28.333 35C28.333 37.7614 30.5716 40 33.333 40Z" fill="#F9E9EC"/>
<path d="M56.667 43.333C54.226 43.333 51.966 44.038 50 45.182V43.61H43.333V70H50V56.666C50 52.984 52.985 50 56.667 50C60.349 50 63.333 52.984 63.333 56.666V70H70V56.666C70 49.303 64.03 43.333 56.667 43.333Z" fill="#F9E9EC"/>
</svg>
