<svg width="100" height="100" viewBox="0 0 100 100" fill="none" xmlns="http://www.w3.org/2000/svg">
<path d="M9.375 92.1876C8.8423 92.1859 8.31886 92.0482 7.85438 91.7874C7.3899 91.5265 6.9998 91.1513 6.72114 90.6973C6.44247 90.2433 6.28449 89.7256 6.2622 89.1934C6.2399 88.6611 6.35403 88.132 6.59375 87.6563L12.8438 75.1563C13.2506 74.4802 13.8981 73.983 14.6563 73.7646C15.4145 73.5462 16.2273 73.6227 16.9314 73.9787C17.6356 74.3347 18.179 74.944 18.4526 75.6841C18.7261 76.4242 18.7096 77.2404 18.4063 77.9688L15.625 83.6876L32.6875 78.1251C33.0855 77.9909 33.5065 77.9383 33.9253 77.9706C34.3442 78.0028 34.7522 78.1191 35.125 78.3125C39.8847 80.7412 45.1566 81.9949 50.5 81.9688C57.9758 81.9924 65.2486 79.5378 71.1812 74.9889C77.1137 70.44 81.3715 64.0533 83.2886 56.8274C85.2057 49.6016 84.6741 41.9442 81.7769 35.0526C78.8796 28.161 73.7802 22.4239 67.276 18.7384C60.7718 15.0529 53.2295 13.6269 45.8287 14.6833C38.4279 15.7397 31.5859 19.219 26.3726 24.5771C21.1593 29.9352 17.8686 36.8699 17.0153 44.2969C16.162 51.7238 17.794 59.2242 21.6563 65.6251C21.8932 65.974 22.0571 66.3672 22.138 66.7812C22.219 67.1951 22.2153 67.6211 22.1272 68.0336C22.0391 68.4461 21.8684 68.8364 21.6254 69.1812C21.3824 69.5259 21.0721 69.8179 20.7133 70.0395C20.3544 70.2612 19.9544 70.4079 19.5374 70.4708C19.1203 70.5338 18.6949 70.5116 18.2866 70.4057C17.8783 70.2998 17.4957 70.1124 17.1618 69.8547C16.8279 69.597 16.5496 69.2744 16.3438 68.9063C11.6738 61.3495 9.64353 52.4567 10.5713 43.6219C11.4991 34.7872 15.3324 26.5101 21.4703 20.0883C27.6082 13.6665 35.7037 9.46309 44.4875 8.13709C53.2713 6.81109 62.2468 8.43746 70.0068 12.7612C77.7669 17.085 83.8727 23.8617 87.3671 32.0289C90.8615 40.196 91.5468 49.2919 89.3156 57.8905C87.0845 66.4891 82.063 74.1041 75.0384 79.5418C68.0138 84.9795 59.3833 87.9324 50.5 87.9375C44.6284 88.0339 38.8095 86.8167 33.4688 84.3751L10.375 92.0313C10.0503 92.1287 9.7139 92.1813 9.375 92.1876V92.1876Z" fill="#F9E9EC"/>
<path d="M62.0313 70.3125C56.5 70.3125 49.25 68.5 39.5 60.5625C29.0313 52 25 43.1563 27.5 33.5C27.7309 32.3084 28.2126 31.1795 28.9129 30.1882C29.6133 29.1968 30.5165 28.3657 31.5625 27.75C33.4878 26.7451 35.7264 26.5212 37.8125 27.125C38.3089 27.3442 38.7397 27.6888 39.0625 28.125L47.1563 36.7188C47.7107 37.3108 48.0133 38.0952 48 38.9063V44.8125L55.5313 50.7813L61.7813 49.875C62.4131 49.8017 63.0527 49.9101 63.625 50.1875C67.0323 51.9961 70.3203 54.0211 73.4688 56.25C73.8422 56.5217 74.1509 56.8728 74.3724 57.2781C74.594 57.6834 74.7229 58.1327 74.75 58.5938C74.9194 61.2826 74.1018 63.9409 72.4505 66.0698C70.7992 68.1986 68.4278 69.6517 65.7813 70.1563C64.5362 70.2929 63.2833 70.3451 62.0313 70.3125V70.3125ZM35.2813 33.0313C35.0294 33.0297 34.7815 33.0944 34.5625 33.2188C34.0362 33.677 33.6924 34.3092 33.5938 35C32.375 39.9063 32.375 46.6875 43.4688 55.7188C54.5625 64.75 62 64.25 64.9688 63.8438C65.8288 63.6281 66.6081 63.1681 67.2125 62.5193C67.8169 61.8705 68.2207 61.0607 68.375 60.1875C65.5 58.25 62.9063 56.75 61.625 56.0625L54.9688 57C54.5491 57.0573 54.1221 57.0287 53.7138 56.9158C53.3056 56.803 52.9245 56.6084 52.5938 56.3438L42.8438 48.5938C42.4671 48.2962 42.1641 47.9159 41.9581 47.4824C41.7522 47.0488 41.6489 46.5737 41.6563 46.0938V39.8438L35.2813 33.0313Z" fill="#F9E9EC"/>
</svg>
